<svg width="24" height="24" viewBox="0 0 24 24" fill="none" xmlns="http://www.w3.org/2000/svg">
<rect width="24" height="24" rx="5" fill="#041248"/>
<path d="M4.69474 10.8262C4.2975 10.4425 3.66443 10.4535 3.28074 10.8507C2.89704 11.248 2.90802 11.881 3.30526 12.2647L4.69474 10.8262ZM9.64706 17L8.95232 17.7193C9.33985 18.0936 9.95427 18.0936 10.3418 17.7193L9.64706 17ZM20.6947 7.71926C21.092 7.33557 21.103 6.7025 20.7193 6.30526C20.3356 5.90802 19.7025 5.89704 19.3053 6.28074L20.6947 7.71926ZM3.30526 12.2647L8.95232 17.7193L10.3418 16.2807L4.69474 10.8262L3.30526 12.2647ZM10.3418 17.7193L12.6947 15.4465L11.3053 14.008L8.95232 16.2807L10.3418 17.7193ZM12.6947 15.4465L20.6947 7.71926L19.3053 6.28074L11.3053 14.008L12.6947 15.4465Z" fill="white"/>
</svg>
