<svg width="24" height="24" viewBox="0 0 24 24" fill="none" xmlns="http://www.w3.org/2000/svg">
<path d="M4.72727 7.9272V19.1564C4.72727 20.1746 5.5413 21 6.54545 21H9.27273M4.72727 7.9272L2 9.9384M4.72727 7.9272L10.9306 3.35261C11.5681 2.88246 12.4319 2.88246 13.0694 3.35261L19.2727 7.9272M19.2727 7.9272V19.1564C19.2727 20.1746 18.4587 21 17.4545 21H14.7273M19.2727 7.9272L22 9.9384M9.27273 21V14.5474C9.27273 13.5292 10.0868 12.7038 11.0909 12.7038H12.9091C13.9132 12.7038 14.7273 13.5292 14.7273 14.5474V21M9.27273 21H14.7273" stroke="#041248" stroke-width="2" stroke-linecap="round"/>
</svg>
