<svg width="24" height="24" viewBox="0 0 24 24" fill="none" xmlns="http://www.w3.org/2000/svg"><path d="M18.3366 19.7365C18.1171 17.9382 16.5848 16.5455 14.7273 16.5455H9.27273C7.41519 16.5455 5.88295 17.9382 5.66336 19.7365M18.3366 19.7365C20.5731 17.9025 22 15.1179 22 12C22 6.47715 17.5228 2 12 2C6.47715 2 2 6.47715 2 12C2 15.1179 3.42693 17.9025 5.66336 19.7365M18.3366 19.7365C16.6116 21.151 14.4049 22 12 22C9.59506 22 7.3884 21.151 5.66336 19.7365M12 13.8182C14.0173 13.8182 15.6527 12.1901 15.6527 10.1818C15.6527 8.17351 14.0173 6.54545 12 6.54545C9.98266 6.54545 8.34728 8.17351 8.34728 10.1818C8.34728 12.1901 9.98266 13.8182 12 13.8182Z" stroke="#041248" stroke-width="2"/></svg>
