<svg width="24" height="24" viewBox="0 0 24 24" fill="none" xmlns="http://www.w3.org/2000/svg"><path d="M12 3.81818C8.96468 3.81818 6.50407 6.26027 6.50407 9.27273V10.276C6.50407 11.9774 5.90307 13.6249 4.80562 14.9319L4.42811 15.3815C3.43377 16.5657 4.28226 18.3636 5.83548 18.3636H18.1645C19.7177 18.3636 20.5662 16.5657 19.5719 15.3815L19.1944 14.9319C18.0969 13.6249 17.4959 11.9774 17.4959 10.276V9.27273C17.4959 6.26027 15.0353 3.81818 12 3.81818ZM12 3.81818V2M9.25204 18.3636V19.2727C9.25204 20.779 10.4823 22 12 22C13.5177 22 14.748 20.779 14.748 19.2727V18.3636" stroke="#041248" stroke-width="2" stroke-linecap="round"/></svg>
