<svg width="24" height="24" viewBox="0 0 24 24" fill="none" xmlns="http://www.w3.org/2000/svg"><path fill-rule="evenodd" clip-rule="evenodd" d="M20.4853 20.4854C20.8758 20.0949 20.8758 19.4617 20.4853 19.0712L13.4142 12.0001L20.4853 4.92903C20.8758 4.53851 20.8758 3.90534 20.4853 3.51482C20.0948 3.12429 19.4616 3.12429 19.0711 3.51482L12 10.5859L4.92894 3.51482C4.53842 3.12429 3.90525 3.12429 3.51473 3.51482C3.1242 3.90534 3.1242 4.53851 3.51473 4.92903L10.5858 12.0001L3.51473 19.0712C3.1242 19.4617 3.1242 20.0949 3.51473 20.4854C3.90525 20.8759 4.53842 20.8759 4.92894 20.4854L12 13.4143L19.0711 20.4854C19.4616 20.8759 20.0948 20.8759 20.4853 20.4854Z" fill="#041248"/></svg>
