<svg width="24" height="24" viewBox="0 0 24 24" fill="none" xmlns="http://www.w3.org/2000/svg"><path d="M2 14V20C2 21.1046 2.89543 22 4 22H20C21.1046 22 22 21.1046 22 20V14M2 14H8C8.55228 14 8.98368 14.46 9.16437 14.9819C9.57105 16.1565 10.687 17 12 17C13.313 17 14.4289 16.1565 14.8356 14.9819C15.0163 14.46 15.4477 14 16 14H22M2 14L4.62127 3.51493C4.84385 2.62459 5.64382 2 6.56155 2H17.4384C18.3562 2 19.1561 2.62459 19.3787 3.51493L22 14M8 6H16M7 10H17" stroke="#041248" stroke-width="2" stroke-linecap="round"/></svg>
