<svg width="24" height="24" viewBox="0 0 24 24" fill="none" xmlns="http://www.w3.org/2000/svg"><path d="M22.3275 11.0497C22.7758 11.6143 22.7758 12.3857 22.3275 12.9503C20.9847 14.642 17.6126 18 12.0018 18C6.39099 18 3.01885 14.642 1.67601 12.9503C1.22779 12.3857 1.22779 11.6143 1.67601 11.0497C3.01885 9.35796 6.39099 6 12.0018 6C17.6126 6 20.9847 9.35796 22.3275 11.0497Z" stroke="#0D0D0D" stroke-width="2" stroke-linecap="round"/><path d="M15.0018 12C15.0018 13.6569 13.6586 15 12.0018 15C10.3449 15 9.00178 13.6569 9.00178 12C9.00178 10.3431 10.3449 9 12.0018 9C13.6586 9 15.0018 10.3431 15.0018 12Z" stroke="#0D0D0D" stroke-width="2" stroke-linecap="round"/></svg>
