<svg width="182" height="38" viewBox="0 0 182 38" fill="none" xmlns="http://www.w3.org/2000/svg">
<path d="M9.31066 12.1636C8.93819 12.8236 8.57736 13.3528 8.22818 13.7511C7.87899 14.1494 7.5298 14.4566 7.18061 14.6728C6.84307 14.889 6.4997 15.0313 6.15051 15.0996C5.80132 15.1679 5.43468 15.202 5.05057 15.202C4.55007 15.202 4.06703 15.1394 3.60144 15.0142C3.13586 14.9004 2.72266 14.6842 2.36183 14.3656C2.001 14.0356 1.71583 13.5918 1.50632 13.0341C1.29681 12.4652 1.19205 11.7368 1.19205 10.8492H2.92053C2.92053 11.8393 3.0893 12.5619 3.42685 13.0171C3.7644 13.4609 4.2649 13.6828 4.92836 13.6828C5.27754 13.6828 5.58017 13.6373 5.83624 13.5462C6.09231 13.4438 6.31929 13.3016 6.51716 13.1195C6.72667 12.9374 6.91872 12.7155 7.09332 12.4538C7.27955 12.192 7.47742 11.8905 7.68694 11.5491H6.56954L1 2.92888H3.07766L8.14088 10.7639L12.5232 2.92888H14.4961L9.31066 12.1636Z" fill="#041248"/>
<path d="M17.4737 11.1906V14.8777H15.85V5.83073H17.4737V9.7909H21.4545L24.0559 5.83073H25.959L22.9385 10.3371L26.5701 14.8777H24.5797L21.6116 11.1906H17.4737Z" fill="#041248"/>
<path d="M33.9397 15.2191C33.1133 15.2304 32.3392 15.1166 31.6176 14.8777C30.9076 14.6387 30.2907 14.2859 29.7669 13.8193V17.7966L28.1432 17.7795V5.83073H29.7669L29.6796 6.94026C30.2034 6.45092 30.8203 6.0697 31.5303 5.79659C32.2519 5.52347 33.0376 5.38691 33.8873 5.38691C34.6788 5.38691 35.4121 5.48933 36.0872 5.69417C36.7623 5.88762 37.3442 6.1835 37.8331 6.58179C38.3336 6.98009 38.7235 7.48649 39.0029 8.101C39.2939 8.70413 39.4452 9.42105 39.4568 10.2518C39.4568 11.1053 39.3172 11.845 39.0378 12.4708C38.7585 13.0967 38.3744 13.6145 37.8855 14.0242C37.3966 14.4339 36.8146 14.7354 36.1396 14.9289C35.4645 15.1223 34.7312 15.2191 33.9397 15.2191ZM29.7843 10.303C29.796 10.9289 29.9007 11.458 30.0986 11.8905C30.3081 12.3229 30.5875 12.6757 30.9367 12.9488C31.2975 13.2219 31.7223 13.4211 32.2112 13.5462C32.7117 13.6714 33.2588 13.734 33.8524 13.734C34.4344 13.734 34.964 13.6714 35.4412 13.5462C35.93 13.4211 36.3432 13.2219 36.6808 12.9488C37.03 12.6757 37.2977 12.3229 37.4839 11.8905C37.6818 11.458 37.7866 10.9289 37.7982 10.303C37.7866 9.6771 37.6818 9.14794 37.4839 8.71551C37.2977 8.27169 37.0358 7.91323 36.6983 7.64011C36.3607 7.35562 35.9533 7.15078 35.4761 7.02561C34.9989 6.90043 34.4693 6.83784 33.8873 6.83784C33.2937 6.83784 32.7466 6.90612 32.2461 7.04267C31.7573 7.16785 31.3266 7.37269 30.9541 7.65718C30.5933 7.9303 30.3081 8.28876 30.0986 8.73258C29.9007 9.16501 29.796 9.68848 29.7843 10.303Z" fill="#041248"/>
<path d="M48.9515 12.3514C48.9398 13.3186 48.6314 14.0526 48.0261 14.5533C47.4325 15.0541 46.5653 15.3044 45.4247 15.3044H44.831C43.6904 15.3044 42.8058 15.0541 42.1772 14.5533C41.5487 14.0413 41.2228 13.2674 41.1995 12.2319C41.1995 11.2191 41.5196 10.4737 42.1598 9.99573C42.7999 9.5064 43.6904 9.26174 44.831 9.26174H50.1911C50.1329 8.76102 49.9874 8.35135 49.7546 8.03272C49.5218 7.7027 49.2483 7.44666 48.934 7.26458C48.6197 7.07112 48.2764 6.94026 47.9039 6.87198C47.5431 6.79232 47.2055 6.75249 46.8912 6.75249H46.7167C46.4024 6.75249 46.0765 6.77525 45.7389 6.82077C45.4014 6.86629 45.0755 6.95164 44.7612 7.07681C44.4469 7.19061 44.1618 7.34993 43.9057 7.55477C43.6496 7.7596 43.4576 8.02703 43.3295 8.35704H41.6185C41.6767 7.91323 41.8397 7.50925 42.1074 7.14509C42.3867 6.78094 42.7476 6.46799 43.1899 6.20626C43.6438 5.93314 44.1618 5.72262 44.7437 5.57468C45.3374 5.42674 45.9659 5.35277 46.6294 5.35277H46.769C47.6769 5.35277 48.451 5.45519 49.0911 5.66003C49.7313 5.86487 50.2551 6.17781 50.6625 6.59886C51.0699 7.01992 51.3667 7.55477 51.5529 8.20341C51.7391 8.85206 51.8381 9.6202 51.8497 10.5078V14.8777H50.226V10.6273L48.4277 10.6102C48.7769 11.0768 48.9515 11.6572 48.9515 12.3514ZM42.8232 12.2319C42.8349 12.7781 42.9978 13.1935 43.3121 13.478C43.6263 13.7511 44.1327 13.8876 44.831 13.8876H45.4247C46.0998 13.8876 46.5944 13.7511 46.9087 13.478C47.223 13.2048 47.3917 12.7895 47.415 12.2319C47.3917 11.6743 47.2288 11.2646 46.9262 11.0028C46.6235 10.7411 46.123 10.6102 45.4247 10.6102H44.831C44.1327 10.6102 43.6263 10.7411 43.3121 11.0028C42.9978 11.2646 42.8349 11.6743 42.8232 12.2319Z" fill="#041248"/>
<path d="M61.2079 2.09246V4.03841L59.0255 4.02134L59.043 2.09246H61.2079ZM56.7383 2.09246V4.03841L54.5734 4.02134V2.09246H56.7383ZM62.5698 13.478V14.8777H54.1194V13.478H57.943V7.21337H55.3416V5.81366H59.5842V13.478H62.5698Z" fill="#041248"/>
<path d="M66.1178 11.1906V14.8777H64.4941V5.83073H66.1178V9.73969H72.8746V5.8478L74.4983 5.83073V14.8777H72.8921V11.1906H66.1178Z" fill="#041248"/>
<path d="M86.4037 11.9075C86.3222 12.4765 86.1302 12.9772 85.8275 13.4097C85.5365 13.8307 85.1583 14.1835 84.6927 14.468C84.2387 14.7525 83.715 14.963 83.1213 15.0996C82.5277 15.2475 81.8875 15.3215 81.2008 15.3215C80.3627 15.3215 79.6062 15.2191 78.9311 15.0142C78.2676 14.8208 77.6973 14.5192 77.2201 14.1095C76.7428 13.6999 76.3762 13.1821 76.1201 12.5562C75.8641 11.9303 75.7302 11.1963 75.7186 10.3542C75.7186 9.51209 75.8466 8.77809 76.1027 8.1522C76.3587 7.51494 76.7196 6.99147 77.1851 6.58179C77.6624 6.16074 78.2385 5.8478 78.9136 5.64296C79.5887 5.42674 80.3395 5.31863 81.1659 5.31863C81.8526 5.31863 82.4928 5.3926 83.0864 5.54054C83.6917 5.68848 84.2271 5.90469 84.6927 6.18919C85.1583 6.47368 85.5424 6.83215 85.845 7.26458C86.1476 7.68563 86.3397 8.18066 86.4212 8.74964H84.6752C84.6054 8.41963 84.4657 8.12945 84.2562 7.87909C84.0583 7.62873 83.8022 7.41821 83.488 7.24751C83.1853 7.07681 82.8303 6.94595 82.423 6.85491C82.0272 6.76387 81.6024 6.71835 81.1484 6.71835C79.9146 6.72973 78.9835 7.0256 78.3549 7.60597C77.7264 8.18634 77.4005 9.09673 77.3772 10.3371C77.4005 11.5661 77.7322 12.4708 78.3724 13.0512C79.0242 13.6316 79.967 13.9218 81.2008 13.9218C82.1203 13.9218 82.8944 13.7568 83.5229 13.4267C84.1514 13.0967 84.5355 12.5903 84.6752 11.9075H86.4037Z" fill="#041248"/>
<path d="M98.5113 11.7539C98.5113 12.4708 98.3775 13.0341 98.1098 13.4438C97.8537 13.8535 97.5045 14.1664 97.0622 14.3826C96.6316 14.5875 96.1311 14.724 95.5607 14.7923C95.002 14.8492 94.4259 14.8777 93.8322 14.8777H88.9611V5.83073H90.5848V8.81792H93.0815C93.7449 8.81792 94.3968 8.8293 95.0369 8.85206C95.6888 8.86344 96.2707 8.95448 96.7829 9.12518C97.3066 9.29588 97.7257 9.58606 98.0399 9.99573C98.3542 10.394 98.5113 10.9801 98.5113 11.7539ZM90.5848 13.478H93.1164C93.6285 13.478 94.1116 13.4723 94.5655 13.4609C95.0195 13.4381 95.4152 13.3755 95.7528 13.2731C96.102 13.1707 96.3755 13.0057 96.5733 12.7781C96.7829 12.5391 96.8876 12.1977 96.8876 11.7539C96.8876 11.3784 96.7945 11.0882 96.6083 10.8834C96.422 10.6785 96.1834 10.5249 95.8924 10.4225C95.6014 10.3201 95.2755 10.2632 94.9147 10.2518C94.5539 10.229 94.1989 10.2176 93.8497 10.2176H90.5848V13.478Z" fill="#041248"/>
<path d="M101.889 11.1906V14.8777H100.265V5.83073H101.889V9.7909H105.87L108.471 5.83073H110.374L107.354 10.3371L110.985 14.8777H108.995L106.027 11.1906H101.889Z" fill="#041248"/>
<path d="M121.079 7.05974L115.212 14.8777H112.558V5.83073H114.182V13.5804L120.049 5.83073H122.702V14.8777H121.079V7.05974Z" fill="#041248"/>
<path d="M134.098 1C134.098 2.03556 133.743 2.82646 133.033 3.37269C132.335 3.90754 131.369 4.17496 130.135 4.17496C128.913 4.17496 127.941 3.91892 127.219 3.40683C126.509 2.88336 126.154 2.08108 126.154 1H127.621C127.621 1.35277 127.696 1.66003 127.848 1.92176C127.999 2.17212 128.197 2.37696 128.441 2.53627C128.686 2.68421 128.953 2.79801 129.244 2.87767C129.547 2.94595 129.844 2.98009 130.135 2.98009C130.426 2.98009 130.717 2.94595 131.008 2.87767C131.31 2.79801 131.578 2.68421 131.811 2.53627C132.055 2.37696 132.253 2.17212 132.405 1.92176C132.556 1.66003 132.632 1.35277 132.632 1H134.098ZM133.662 7.05974L127.795 14.8777H125.142V5.83073H126.765V13.5804L132.632 5.83073H135.285V14.8777H133.662V7.05974Z" fill="#041248"/>
<path d="M7.49488 34.4225C6.66847 34.4339 5.89444 34.3201 5.17279 34.0811C4.46277 33.8421 3.84588 33.4893 3.32209 33.0228V37L1.69837 36.9829V25.0341H3.32209L3.2348 26.1437C3.75858 25.6543 4.37548 25.2731 5.08549 25C5.80714 24.7269 6.59282 24.5903 7.4425 24.5903C8.23399 24.5903 8.96729 24.6927 9.64238 24.8976C10.3175 25.091 10.8995 25.3869 11.3883 25.7852C11.8888 26.1835 12.2787 26.6899 12.5581 27.3044C12.8491 27.9075 13.0004 28.6245 13.012 29.4552C13.012 30.3087 12.8724 31.0484 12.593 31.6743C12.3137 32.3001 11.9296 32.8179 11.4407 33.2276C10.9518 33.6373 10.3699 33.9388 9.69476 34.1323C9.01967 34.3257 8.28637 34.4225 7.49488 34.4225ZM3.33955 29.5064C3.35119 30.1323 3.45595 30.6615 3.65382 31.0939C3.86334 31.5263 4.14268 31.8791 4.49187 32.1522C4.8527 32.4253 5.27754 32.6245 5.76641 32.7496C6.26691 32.8748 6.81397 32.9374 7.40759 32.9374C7.98956 32.9374 8.51917 32.8748 8.99639 32.7496C9.48525 32.6245 9.89845 32.4253 10.236 32.1522C10.5852 31.8791 10.8529 31.5263 11.0391 31.0939C11.237 30.6615 11.3418 30.1323 11.3534 29.5064C11.3418 28.8805 11.237 28.3514 11.0391 27.9189C10.8529 27.4751 10.591 27.1166 10.2535 26.8435C9.91591 26.559 9.50853 26.3542 9.03131 26.229C8.55408 26.1038 8.02448 26.0413 7.4425 26.0413C6.84889 26.0413 6.30183 26.1095 5.80132 26.2461C5.31246 26.3713 4.8818 26.5761 4.50933 26.8606C4.1485 27.1337 3.86334 27.4922 3.65382 27.936C3.45595 28.3684 3.35119 28.8919 3.33955 29.5064Z" fill="#041248"/>
<path d="M25.6144 31.5036C25.4398 31.9929 25.1838 32.4253 24.8462 32.8009C24.5087 33.1764 24.1013 33.4893 23.6241 33.7397C23.1585 33.99 22.6347 34.1778 22.0527 34.303C21.4707 34.4282 20.8597 34.4908 20.2195 34.4908C19.3814 34.4908 18.619 34.3883 17.9323 34.1835C17.2456 33.99 16.652 33.6885 16.1515 33.2788C15.6626 32.8691 15.2785 32.3514 14.9991 31.7255C14.7314 31.0996 14.5917 30.3656 14.5801 29.5235C14.5801 28.6814 14.7198 27.9474 14.9991 27.3215C15.2901 26.6842 15.6859 26.1607 16.1864 25.7511C16.6985 25.33 17.3038 25.0171 18.0021 24.8122C18.7005 24.596 19.4629 24.4879 20.2893 24.4879C21.2438 24.4879 22.076 24.6188 22.786 24.8805C23.5077 25.1422 24.0955 25.5178 24.5494 26.0071C25.015 26.4851 25.3467 27.0654 25.5446 27.7482C25.7425 28.431 25.7948 29.1878 25.7017 30.0185H16.2737C16.4017 31.0541 16.8033 31.8222 17.4784 32.3229C18.1651 32.8236 19.0788 33.074 20.2195 33.074C21.0575 33.074 21.7966 32.9488 22.4368 32.6984C23.077 32.4367 23.5484 32.0327 23.851 31.4865L25.6144 31.5036ZM20.3242 25.9047C19.2534 25.9047 18.3571 26.1323 17.6355 26.5875C16.9255 27.0313 16.489 27.7198 16.326 28.6529H24.078C24.0664 28.2205 23.9558 27.8336 23.7463 27.4922C23.5484 27.1508 23.2807 26.8663 22.9431 26.6387C22.6056 26.3997 22.2098 26.2176 21.7559 26.0925C21.302 25.9673 20.8247 25.9047 20.3242 25.9047Z" fill="#041248"/>
<path d="M38.1722 31.0768C37.9045 32.2148 37.3109 33.0569 36.3913 33.6031C35.4835 34.138 34.337 34.4054 32.9519 34.4054C32.1138 34.4054 31.3572 34.3087 30.6821 34.1152C30.0187 33.9218 29.4483 33.6259 28.9711 33.2276C28.5055 32.8293 28.1447 32.3229 27.8886 31.7084C27.6326 31.0939 27.4987 30.3656 27.4871 29.5235C27.4871 28.6814 27.6151 27.9531 27.8712 27.3386C28.1273 26.7127 28.4881 26.1949 28.9537 25.7852C29.4309 25.3755 30.007 25.074 30.6821 24.8805C31.3572 24.6757 32.108 24.5733 32.9344 24.5733C34.3079 24.5733 35.4602 24.8464 36.3913 25.3926C37.3342 25.9275 37.9336 26.7696 38.1897 27.9189H36.4263C36.2168 27.2361 35.8094 26.7411 35.2041 26.4339C34.5989 26.1152 33.8365 25.9559 32.9169 25.9559C31.7995 25.9673 30.9324 26.2006 30.3155 26.6558C29.6986 27.111 29.3261 27.8506 29.1981 28.8748H34.5057V30.2745H29.2156C29.3669 31.2304 29.751 31.9303 30.3679 32.3741C30.9964 32.8065 31.8577 33.0228 32.9519 33.0228C33.883 33.0228 34.6396 32.8691 35.2216 32.5619C35.8036 32.2432 36.2109 31.7482 36.4437 31.0768H38.1722Z" fill="#041248"/>
<path d="M49.7459 31.111C49.6644 31.6799 49.4723 32.1807 49.1697 32.6131C48.8787 33.0341 48.5004 33.3869 48.0348 33.6714C47.5809 33.9559 47.0571 34.1664 46.4635 34.303C45.8699 34.4509 45.2297 34.5249 44.543 34.5249C43.7049 34.5249 42.9483 34.4225 42.2732 34.2176C41.6098 34.0242 41.0395 33.7226 40.5622 33.3129C40.085 32.9033 39.7184 32.3855 39.4623 31.7596C39.2062 31.1337 39.0724 30.3997 39.0607 29.5576C39.0607 28.7155 39.1888 27.9815 39.4448 27.3556C39.7009 26.7184 40.0617 26.1949 40.5273 25.7852C41.0045 25.3642 41.5807 25.0512 42.2558 24.8464C42.9309 24.6302 43.6816 24.5221 44.508 24.5221C45.1948 24.5221 45.835 24.596 46.4286 24.744C47.0338 24.8919 47.5693 25.1081 48.0348 25.3926C48.5004 25.6771 48.8845 26.0356 49.1872 26.468C49.4898 26.889 49.6818 27.3841 49.7633 27.9531H48.0174C47.9475 27.623 47.8079 27.3329 47.5984 27.0825C47.4005 26.8321 47.1444 26.6216 46.8301 26.4509C46.5275 26.2802 46.1725 26.1494 45.7651 26.0583C45.3694 25.9673 44.9445 25.9218 44.4906 25.9218C43.2568 25.9331 42.3256 26.229 41.6971 26.8094C41.0686 27.3898 40.7426 28.3001 40.7194 29.5405C40.7426 30.7696 41.0744 31.6743 41.7145 32.2546C42.3664 32.835 43.3092 33.1252 44.543 33.1252C45.4625 33.1252 46.2365 32.9602 46.8651 32.6302C47.4936 32.3001 47.8777 31.7937 48.0174 31.111H49.7459Z" fill="#041248"/>
<path d="M57.3665 26.4851V34.0811H55.7253V26.4851H51.343V25.0341H61.7138V26.4851H57.3665Z" fill="#041248"/>
<path d="M68.9948 34.4225C68.1684 34.4339 67.3944 34.3201 66.6727 34.0811C65.9627 33.8421 65.3458 33.4893 64.822 33.0228V37L63.1983 36.9829V25.0341H64.822L64.7347 26.1437C65.2585 25.6543 65.8754 25.2731 66.5854 25C67.3071 24.7269 68.0927 24.5903 68.9424 24.5903C69.7339 24.5903 70.4672 24.6927 71.1423 24.8976C71.8174 25.091 72.3994 25.3869 72.8882 25.7852C73.3887 26.1835 73.7787 26.6899 74.058 27.3044C74.349 27.9075 74.5003 28.6245 74.512 29.4552C74.512 30.3087 74.3723 31.0484 74.0929 31.6743C73.8136 32.3001 73.4295 32.8179 72.9406 33.2276C72.4518 33.6373 71.8698 33.9388 71.1947 34.1323C70.5196 34.3257 69.7863 34.4225 68.9948 34.4225ZM64.8395 29.5064C64.8511 30.1323 64.9559 30.6615 65.1537 31.0939C65.3633 31.5263 65.6426 31.8791 65.9918 32.1522C66.3526 32.4253 66.7775 32.6245 67.2663 32.7496C67.7668 32.8748 68.3139 32.9374 68.9075 32.9374C69.4895 32.9374 70.0191 32.8748 70.4963 32.7496C70.9852 32.6245 71.3984 32.4253 71.7359 32.1522C72.0851 31.8791 72.3528 31.5263 72.539 31.0939C72.7369 30.6615 72.8417 30.1323 72.8533 29.5064C72.8417 28.8805 72.7369 28.3514 72.539 27.9189C72.3528 27.4751 72.0909 27.1166 71.7534 26.8435C71.4158 26.559 71.0084 26.3542 70.5312 26.229C70.054 26.1038 69.5244 26.0413 68.9424 26.0413C68.3488 26.0413 67.8017 26.1095 67.3012 26.2461C66.8124 26.3713 66.3817 26.5761 66.0092 26.8606C65.6484 27.1337 65.3633 27.4922 65.1537 27.936C64.9559 28.3684 64.8511 28.8919 64.8395 29.5064Z" fill="#041248"/>
<path d="M86.4416 26.4851V34.0811H84.8179V25.0341H94.1761V34.0811H92.5698V26.4851H86.4416Z" fill="#041248"/>
<path d="M106.987 29.5918C106.976 30.4225 106.83 31.1508 106.551 31.7767C106.283 32.3912 105.899 32.9033 105.399 33.3129C104.91 33.7226 104.322 34.0299 103.635 34.2347C102.96 34.4395 102.209 34.542 101.383 34.542C100.545 34.542 99.7884 34.4395 99.1133 34.2347C98.4382 34.0413 97.8562 33.7397 97.3673 33.33C96.8901 32.9203 96.5177 32.4026 96.2499 31.7767C95.9822 31.1508 95.8426 30.4168 95.8309 29.5747C95.8309 28.7326 95.9648 27.9986 96.2325 27.3727C96.5002 26.7354 96.8727 26.212 97.3499 25.8023C97.8387 25.3812 98.4207 25.0683 99.0958 24.8634C99.7826 24.6472 100.539 24.5391 101.366 24.5391C102.204 24.5391 102.966 24.6415 103.653 24.8464C104.339 25.0512 104.927 25.3642 105.416 25.7852C105.917 26.1949 106.301 26.7184 106.568 27.3556C106.848 27.9929 106.987 28.7383 106.987 29.5918ZM97.4896 29.5405C97.5128 30.7696 97.8562 31.6743 98.5197 32.2546C99.1948 32.8236 100.149 33.1081 101.383 33.1081C102.617 33.1081 103.577 32.8236 104.264 32.2546C104.951 31.6856 105.306 30.7809 105.329 29.5405C105.306 28.3001 104.945 27.3954 104.246 26.8265C103.548 26.2461 102.582 25.9559 101.348 25.9559C100.114 25.9559 99.1657 26.2461 98.5022 26.8265C97.8504 27.3954 97.5128 28.3001 97.4896 29.5405Z" fill="#041248"/>
<path d="M112.372 30.3428L109.858 34.0811H107.798L111.011 29.5064L108.182 25.0341H110.26L112.704 28.926H114.799L117.226 25.0341H119.304L116.475 29.5235L119.688 34.0811H117.645L115.131 30.3428H112.372Z" fill="#041248"/>
<path d="M131.625 29.5918C131.613 30.4225 131.468 31.1508 131.188 31.7767C130.921 32.3912 130.537 32.9033 130.036 33.3129C129.547 33.7226 128.959 34.0299 128.273 34.2347C127.598 34.4395 126.847 34.542 126.02 34.542C125.182 34.542 124.426 34.4395 123.751 34.2347C123.076 34.0413 122.494 33.7397 122.005 33.33C121.528 32.9203 121.155 32.4026 120.887 31.7767C120.62 31.1508 120.48 30.4168 120.468 29.5747C120.468 28.7326 120.602 27.9986 120.87 27.3727C121.138 26.7354 121.51 26.212 121.987 25.8023C122.476 25.3812 123.058 25.0683 123.733 24.8634C124.42 24.6472 125.177 24.5391 126.003 24.5391C126.841 24.5391 127.603 24.6415 128.29 24.8464C128.977 25.0512 129.565 25.3642 130.054 25.7852C130.554 26.1949 130.938 26.7184 131.206 27.3556C131.485 27.9929 131.625 28.7383 131.625 29.5918ZM122.127 29.5405C122.15 30.7696 122.494 31.6743 123.157 32.2546C123.832 32.8236 124.787 33.1081 126.02 33.1081C127.254 33.1081 128.215 32.8236 128.901 32.2546C129.588 31.6856 129.943 30.7809 129.966 29.5405C129.943 28.3001 129.582 27.3954 128.884 26.8265C128.185 26.2461 127.219 25.9559 125.986 25.9559C124.752 25.9559 123.803 26.2461 123.14 26.8265C122.488 27.3954 122.15 28.3001 122.127 29.5405Z" fill="#041248"/>
<path d="M143.906 31.606C143.906 32.4595 143.644 33.0854 143.121 33.4836C142.597 33.8819 141.928 34.0811 141.113 34.0811H133.309V25.0341H140.519C140.95 25.0341 141.346 25.0854 141.706 25.1878C142.067 25.2902 142.376 25.4495 142.632 25.6657C142.888 25.8706 143.086 26.138 143.225 26.468C143.377 26.798 143.452 27.1849 143.452 27.6287C143.441 28.1408 143.342 28.5391 143.156 28.8236C142.981 29.1081 142.725 29.3186 142.387 29.4552C142.83 29.5804 143.191 29.825 143.47 30.1892C143.749 30.5533 143.895 31.0256 143.906 31.606ZM134.932 28.9772L140.083 28.9943C140.607 28.9829 141.026 28.8976 141.34 28.7383C141.654 28.5789 141.817 28.2489 141.829 27.7482C141.829 27.4296 141.776 27.1849 141.672 27.0142C141.567 26.8321 141.427 26.7013 141.253 26.6216C141.078 26.5306 140.868 26.4794 140.624 26.468C140.391 26.4452 140.141 26.4339 139.873 26.4339H134.932V28.9772ZM134.932 32.6814H140.572C141.165 32.6814 141.596 32.6017 141.864 32.4424C142.131 32.2831 142.271 31.9644 142.283 31.4865C142.271 31.0199 142.131 30.7184 141.864 30.5818C141.608 30.4339 141.189 30.3599 140.607 30.3599H134.932V32.6814Z" fill="#041248"/>
<path d="M153.486 31.5548C153.474 32.522 153.166 33.256 152.561 33.7568C151.967 34.2575 151.1 34.5078 149.959 34.5078H149.366C148.225 34.5078 147.34 34.2575 146.712 33.7568C146.083 33.2447 145.757 32.4708 145.734 31.4353C145.734 30.4225 146.054 29.6771 146.694 29.1991C147.334 28.7098 148.225 28.4652 149.366 28.4652H154.726C154.667 27.9644 154.522 27.5548 154.289 27.2361C154.056 26.9061 153.783 26.6501 153.468 26.468C153.154 26.2745 152.811 26.1437 152.438 26.0754C152.078 25.9957 151.74 25.9559 151.426 25.9559H151.251C150.937 25.9559 150.611 25.9787 150.273 26.0242C149.936 26.0697 149.61 26.1551 149.296 26.2802C148.981 26.394 148.696 26.5533 148.44 26.7582C148.184 26.963 147.992 27.2304 147.864 27.5605H146.153C146.211 27.1166 146.374 26.7127 146.642 26.3485C146.921 25.9844 147.282 25.6714 147.724 25.4097C148.178 25.1366 148.696 24.926 149.278 24.7781C149.872 24.6302 150.5 24.5562 151.164 24.5562H151.304C152.211 24.5562 152.985 24.6586 153.626 24.8634C154.266 25.0683 154.79 25.3812 155.197 25.8023C155.604 26.2233 155.901 26.7582 156.087 27.4068C156.274 28.0555 156.373 28.8236 156.384 29.7112V34.0811H154.76V29.8307L152.962 29.8137C153.311 30.2802 153.486 30.8606 153.486 31.5548ZM147.358 31.4353C147.369 31.9815 147.532 32.3969 147.847 32.6814C148.161 32.9545 148.667 33.091 149.366 33.091H149.959C150.634 33.091 151.129 32.9545 151.443 32.6814C151.757 32.4083 151.926 31.9929 151.95 31.4353C151.926 30.8777 151.763 30.468 151.461 30.2063C151.158 29.9445 150.658 29.8137 149.959 29.8137H149.366C148.667 29.8137 148.161 29.9445 147.847 30.2063C147.532 30.468 147.369 30.8777 147.358 31.4353Z" fill="#041248"/>
<path d="M160.627 30.394V34.0811H159.003V25.0341H160.627V28.9431H167.384V25.0512L169.007 25.0341V34.0811H167.401V30.394H160.627Z" fill="#041248"/>
<path d="M181 30.9573C181 31.6743 180.866 32.2376 180.598 32.6472C180.342 33.0569 179.993 33.3698 179.551 33.5861C179.12 33.7909 178.62 33.9275 178.049 33.9957C177.491 34.0526 176.915 34.0811 176.321 34.0811H171.45V25.0341H173.073V28.0213H175.57C176.234 28.0213 176.885 28.0327 177.526 28.0555C178.177 28.0669 178.759 28.1579 179.272 28.3286C179.795 28.4993 180.214 28.7895 180.529 29.1991C180.843 29.5974 181 30.1835 181 30.9573ZM173.073 32.6814H175.605C176.117 32.6814 176.6 32.6757 177.054 32.6643C177.508 32.6415 177.904 32.5789 178.241 32.4765C178.591 32.3741 178.864 32.2091 179.062 31.9815C179.272 31.7425 179.376 31.4011 179.376 30.9573C179.376 30.5818 179.283 30.2916 179.097 30.0868C178.911 29.8819 178.672 29.7283 178.381 29.6259C178.09 29.5235 177.764 29.4666 177.403 29.4552C177.043 29.4324 176.688 29.4211 176.338 29.4211H173.073V32.6814Z" fill="#041248"/>
<path d="M9.31066 12.1636C8.93819 12.8236 8.57736 13.3528 8.22818 13.7511C7.87899 14.1494 7.5298 14.4566 7.18061 14.6728C6.84307 14.889 6.4997 15.0313 6.15051 15.0996C5.80132 15.1679 5.43468 15.202 5.05057 15.202C4.55007 15.202 4.06703 15.1394 3.60144 15.0142C3.13586 14.9004 2.72266 14.6842 2.36183 14.3656C2.001 14.0356 1.71583 13.5918 1.50632 13.0341C1.29681 12.4652 1.19205 11.7368 1.19205 10.8492H2.92053C2.92053 11.8393 3.0893 12.5619 3.42685 13.0171C3.7644 13.4609 4.2649 13.6828 4.92836 13.6828C5.27754 13.6828 5.58017 13.6373 5.83624 13.5462C6.09231 13.4438 6.31929 13.3016 6.51716 13.1195C6.72667 12.9374 6.91872 12.7155 7.09332 12.4538C7.27955 12.192 7.47742 11.8905 7.68694 11.5491H6.56954L1 2.92888H3.07766L8.14088 10.7639L12.5232 2.92888H14.4961L9.31066 12.1636Z" stroke="#041248" stroke-width="0.3"/>
<path d="M17.4737 11.1906V14.8777H15.85V5.83073H17.4737V9.7909H21.4545L24.0559 5.83073H25.959L22.9385 10.3371L26.5701 14.8777H24.5797L21.6116 11.1906H17.4737Z" stroke="#041248" stroke-width="0.3"/>
<path d="M33.9397 15.2191C33.1133 15.2304 32.3392 15.1166 31.6176 14.8777C30.9076 14.6387 30.2907 14.2859 29.7669 13.8193V17.7966L28.1432 17.7795V5.83073H29.7669L29.6796 6.94026C30.2034 6.45092 30.8203 6.0697 31.5303 5.79659C32.2519 5.52347 33.0376 5.38691 33.8873 5.38691C34.6788 5.38691 35.4121 5.48933 36.0872 5.69417C36.7623 5.88762 37.3442 6.1835 37.8331 6.58179C38.3336 6.98009 38.7235 7.48649 39.0029 8.101C39.2939 8.70413 39.4452 9.42105 39.4568 10.2518C39.4568 11.1053 39.3172 11.845 39.0378 12.4708C38.7585 13.0967 38.3744 13.6145 37.8855 14.0242C37.3966 14.4339 36.8146 14.7354 36.1396 14.9289C35.4645 15.1223 34.7312 15.2191 33.9397 15.2191ZM29.7843 10.303C29.796 10.9289 29.9007 11.458 30.0986 11.8905C30.3081 12.3229 30.5875 12.6757 30.9367 12.9488C31.2975 13.2219 31.7223 13.4211 32.2112 13.5462C32.7117 13.6714 33.2588 13.734 33.8524 13.734C34.4344 13.734 34.964 13.6714 35.4412 13.5462C35.93 13.4211 36.3432 13.2219 36.6808 12.9488C37.03 12.6757 37.2977 12.3229 37.4839 11.8905C37.6818 11.458 37.7866 10.9289 37.7982 10.303C37.7866 9.6771 37.6818 9.14794 37.4839 8.71551C37.2977 8.27169 37.0358 7.91323 36.6983 7.64011C36.3607 7.35562 35.9533 7.15078 35.4761 7.02561C34.9989 6.90043 34.4693 6.83784 33.8873 6.83784C33.2937 6.83784 32.7466 6.90612 32.2461 7.04267C31.7573 7.16785 31.3266 7.37269 30.9541 7.65718C30.5933 7.9303 30.3081 8.28876 30.0986 8.73258C29.9007 9.16501 29.796 9.68848 29.7843 10.303Z" stroke="#041248" stroke-width="0.3"/>
<path d="M48.9515 12.3514C48.9398 13.3186 48.6314 14.0526 48.0261 14.5533C47.4325 15.0541 46.5653 15.3044 45.4247 15.3044H44.831C43.6904 15.3044 42.8058 15.0541 42.1772 14.5533C41.5487 14.0413 41.2228 13.2674 41.1995 12.2319C41.1995 11.2191 41.5196 10.4737 42.1598 9.99573C42.7999 9.5064 43.6904 9.26174 44.831 9.26174H50.1911C50.1329 8.76102 49.9874 8.35135 49.7546 8.03272C49.5218 7.7027 49.2483 7.44666 48.934 7.26458C48.6197 7.07112 48.2764 6.94026 47.9039 6.87198C47.5431 6.79232 47.2055 6.75249 46.8912 6.75249H46.7167C46.4024 6.75249 46.0765 6.77525 45.7389 6.82077C45.4014 6.86629 45.0755 6.95164 44.7612 7.07681C44.4469 7.19061 44.1618 7.34993 43.9057 7.55477C43.6496 7.7596 43.4576 8.02703 43.3295 8.35704H41.6185C41.6767 7.91323 41.8397 7.50925 42.1074 7.14509C42.3867 6.78094 42.7476 6.46799 43.1899 6.20626C43.6438 5.93314 44.1618 5.72262 44.7437 5.57468C45.3374 5.42674 45.9659 5.35277 46.6294 5.35277H46.769C47.6769 5.35277 48.451 5.45519 49.0911 5.66003C49.7313 5.86487 50.2551 6.17781 50.6625 6.59886C51.0699 7.01992 51.3667 7.55477 51.5529 8.20341C51.7391 8.85206 51.8381 9.6202 51.8497 10.5078V14.8777H50.226V10.6273L48.4277 10.6102C48.7769 11.0768 48.9515 11.6572 48.9515 12.3514ZM42.8232 12.2319C42.8349 12.7781 42.9978 13.1935 43.3121 13.478C43.6263 13.7511 44.1327 13.8876 44.831 13.8876H45.4247C46.0998 13.8876 46.5944 13.7511 46.9087 13.478C47.223 13.2048 47.3917 12.7895 47.415 12.2319C47.3917 11.6743 47.2288 11.2646 46.9262 11.0028C46.6235 10.7411 46.123 10.6102 45.4247 10.6102H44.831C44.1327 10.6102 43.6263 10.7411 43.3121 11.0028C42.9978 11.2646 42.8349 11.6743 42.8232 12.2319Z" stroke="#041248" stroke-width="0.3"/>
<path d="M61.2079 2.09246V4.03841L59.0255 4.02134L59.043 2.09246H61.2079ZM56.7383 2.09246V4.03841L54.5734 4.02134V2.09246H56.7383ZM62.5698 13.478V14.8777H54.1194V13.478H57.943V7.21337H55.3416V5.81366H59.5842V13.478H62.5698Z" stroke="#041248" stroke-width="0.3"/>
<path d="M66.1178 11.1906V14.8777H64.4941V5.83073H66.1178V9.73969H72.8746V5.8478L74.4983 5.83073V14.8777H72.8921V11.1906H66.1178Z" stroke="#041248" stroke-width="0.3"/>
<path d="M86.4037 11.9075C86.3222 12.4765 86.1302 12.9772 85.8275 13.4097C85.5365 13.8307 85.1583 14.1835 84.6927 14.468C84.2387 14.7525 83.715 14.963 83.1213 15.0996C82.5277 15.2475 81.8875 15.3215 81.2008 15.3215C80.3627 15.3215 79.6062 15.2191 78.9311 15.0142C78.2676 14.8208 77.6973 14.5192 77.2201 14.1095C76.7428 13.6999 76.3762 13.1821 76.1201 12.5562C75.8641 11.9303 75.7302 11.1963 75.7186 10.3542C75.7186 9.51209 75.8466 8.77809 76.1027 8.1522C76.3587 7.51494 76.7196 6.99147 77.1851 6.58179C77.6624 6.16074 78.2385 5.8478 78.9136 5.64296C79.5887 5.42674 80.3395 5.31863 81.1659 5.31863C81.8526 5.31863 82.4928 5.3926 83.0864 5.54054C83.6917 5.68848 84.2271 5.90469 84.6927 6.18919C85.1583 6.47368 85.5424 6.83215 85.845 7.26458C86.1476 7.68563 86.3397 8.18066 86.4212 8.74964H84.6752C84.6054 8.41963 84.4657 8.12945 84.2562 7.87909C84.0583 7.62873 83.8022 7.41821 83.488 7.24751C83.1853 7.07681 82.8303 6.94595 82.423 6.85491C82.0272 6.76387 81.6024 6.71835 81.1484 6.71835C79.9146 6.72973 78.9835 7.0256 78.3549 7.60597C77.7264 8.18634 77.4005 9.09673 77.3772 10.3371C77.4005 11.5661 77.7322 12.4708 78.3724 13.0512C79.0242 13.6316 79.967 13.9218 81.2008 13.9218C82.1203 13.9218 82.8944 13.7568 83.5229 13.4267C84.1514 13.0967 84.5355 12.5903 84.6752 11.9075H86.4037Z" stroke="#041248" stroke-width="0.3"/>
<path d="M98.5113 11.7539C98.5113 12.4708 98.3775 13.0341 98.1098 13.4438C97.8537 13.8535 97.5045 14.1664 97.0622 14.3826C96.6316 14.5875 96.1311 14.724 95.5607 14.7923C95.002 14.8492 94.4259 14.8777 93.8322 14.8777H88.9611V5.83073H90.5848V8.81792H93.0815C93.7449 8.81792 94.3968 8.8293 95.0369 8.85206C95.6888 8.86344 96.2707 8.95448 96.7829 9.12518C97.3066 9.29588 97.7257 9.58606 98.0399 9.99573C98.3542 10.394 98.5113 10.9801 98.5113 11.7539ZM90.5848 13.478H93.1164C93.6285 13.478 94.1116 13.4723 94.5655 13.4609C95.0195 13.4381 95.4152 13.3755 95.7528 13.2731C96.102 13.1707 96.3755 13.0057 96.5733 12.7781C96.7829 12.5391 96.8876 12.1977 96.8876 11.7539C96.8876 11.3784 96.7945 11.0882 96.6083 10.8834C96.422 10.6785 96.1834 10.5249 95.8924 10.4225C95.6014 10.3201 95.2755 10.2632 94.9147 10.2518C94.5539 10.229 94.1989 10.2176 93.8497 10.2176H90.5848V13.478Z" stroke="#041248" stroke-width="0.3"/>
<path d="M101.889 11.1906V14.8777H100.265V5.83073H101.889V9.7909H105.87L108.471 5.83073H110.374L107.354 10.3371L110.985 14.8777H108.995L106.027 11.1906H101.889Z" stroke="#041248" stroke-width="0.3"/>
<path d="M121.079 7.05974L115.212 14.8777H112.558V5.83073H114.182V13.5804L120.049 5.83073H122.702V14.8777H121.079V7.05974Z" stroke="#041248" stroke-width="0.3"/>
<path d="M134.098 1C134.098 2.03556 133.743 2.82646 133.033 3.37269C132.335 3.90754 131.369 4.17496 130.135 4.17496C128.913 4.17496 127.941 3.91892 127.219 3.40683C126.509 2.88336 126.154 2.08108 126.154 1H127.621C127.621 1.35277 127.696 1.66003 127.848 1.92176C127.999 2.17212 128.197 2.37696 128.441 2.53627C128.686 2.68421 128.953 2.79801 129.244 2.87767C129.547 2.94595 129.844 2.98009 130.135 2.98009C130.426 2.98009 130.717 2.94595 131.008 2.87767C131.31 2.79801 131.578 2.68421 131.811 2.53627C132.055 2.37696 132.253 2.17212 132.405 1.92176C132.556 1.66003 132.632 1.35277 132.632 1H134.098ZM133.662 7.05974L127.795 14.8777H125.142V5.83073H126.765V13.5804L132.632 5.83073H135.285V14.8777H133.662V7.05974Z" stroke="#041248" stroke-width="0.3"/>
<path d="M7.49488 34.4225C6.66847 34.4339 5.89444 34.3201 5.17279 34.0811C4.46277 33.8421 3.84588 33.4893 3.32209 33.0228V37L1.69837 36.9829V25.0341H3.32209L3.2348 26.1437C3.75858 25.6543 4.37548 25.2731 5.08549 25C5.80714 24.7269 6.59282 24.5903 7.4425 24.5903C8.23399 24.5903 8.96729 24.6927 9.64238 24.8976C10.3175 25.091 10.8995 25.3869 11.3883 25.7852C11.8888 26.1835 12.2787 26.6899 12.5581 27.3044C12.8491 27.9075 13.0004 28.6245 13.012 29.4552C13.012 30.3087 12.8724 31.0484 12.593 31.6743C12.3137 32.3001 11.9296 32.8179 11.4407 33.2276C10.9518 33.6373 10.3699 33.9388 9.69476 34.1323C9.01967 34.3257 8.28637 34.4225 7.49488 34.4225ZM3.33955 29.5064C3.35119 30.1323 3.45595 30.6615 3.65382 31.0939C3.86334 31.5263 4.14268 31.8791 4.49187 32.1522C4.8527 32.4253 5.27754 32.6245 5.76641 32.7496C6.26691 32.8748 6.81397 32.9374 7.40759 32.9374C7.98956 32.9374 8.51917 32.8748 8.99639 32.7496C9.48525 32.6245 9.89845 32.4253 10.236 32.1522C10.5852 31.8791 10.8529 31.5263 11.0391 31.0939C11.237 30.6615 11.3418 30.1323 11.3534 29.5064C11.3418 28.8805 11.237 28.3514 11.0391 27.9189C10.8529 27.4751 10.591 27.1166 10.2535 26.8435C9.91591 26.559 9.50853 26.3542 9.03131 26.229C8.55408 26.1038 8.02448 26.0413 7.4425 26.0413C6.84889 26.0413 6.30183 26.1095 5.80132 26.2461C5.31246 26.3713 4.8818 26.5761 4.50933 26.8606C4.1485 27.1337 3.86334 27.4922 3.65382 27.936C3.45595 28.3684 3.35119 28.8919 3.33955 29.5064Z" stroke="#041248" stroke-width="0.3"/>
<path d="M25.6144 31.5036C25.4398 31.9929 25.1838 32.4253 24.8462 32.8009C24.5087 33.1764 24.1013 33.4893 23.6241 33.7397C23.1585 33.99 22.6347 34.1778 22.0527 34.303C21.4707 34.4282 20.8597 34.4908 20.2195 34.4908C19.3814 34.4908 18.619 34.3883 17.9323 34.1835C17.2456 33.99 16.652 33.6885 16.1515 33.2788C15.6626 32.8691 15.2785 32.3514 14.9991 31.7255C14.7314 31.0996 14.5917 30.3656 14.5801 29.5235C14.5801 28.6814 14.7198 27.9474 14.9991 27.3215C15.2901 26.6842 15.6859 26.1607 16.1864 25.7511C16.6985 25.33 17.3038 25.0171 18.0021 24.8122C18.7005 24.596 19.4629 24.4879 20.2893 24.4879C21.2438 24.4879 22.076 24.6188 22.786 24.8805C23.5077 25.1422 24.0955 25.5178 24.5494 26.0071C25.015 26.4851 25.3467 27.0654 25.5446 27.7482C25.7425 28.431 25.7948 29.1878 25.7017 30.0185H16.2737C16.4017 31.0541 16.8033 31.8222 17.4784 32.3229C18.1651 32.8236 19.0788 33.074 20.2195 33.074C21.0575 33.074 21.7966 32.9488 22.4368 32.6984C23.077 32.4367 23.5484 32.0327 23.851 31.4865L25.6144 31.5036ZM20.3242 25.9047C19.2534 25.9047 18.3571 26.1323 17.6355 26.5875C16.9255 27.0313 16.489 27.7198 16.326 28.6529H24.078C24.0664 28.2205 23.9558 27.8336 23.7463 27.4922C23.5484 27.1508 23.2807 26.8663 22.9431 26.6387C22.6056 26.3997 22.2098 26.2176 21.7559 26.0925C21.302 25.9673 20.8247 25.9047 20.3242 25.9047Z" stroke="#041248" stroke-width="0.3"/>
<path d="M38.1722 31.0768C37.9045 32.2148 37.3109 33.0569 36.3913 33.6031C35.4835 34.138 34.337 34.4054 32.9519 34.4054C32.1138 34.4054 31.3572 34.3087 30.6821 34.1152C30.0187 33.9218 29.4483 33.6259 28.9711 33.2276C28.5055 32.8293 28.1447 32.3229 27.8886 31.7084C27.6326 31.0939 27.4987 30.3656 27.4871 29.5235C27.4871 28.6814 27.6151 27.9531 27.8712 27.3386C28.1273 26.7127 28.4881 26.1949 28.9537 25.7852C29.4309 25.3755 30.007 25.074 30.6821 24.8805C31.3572 24.6757 32.108 24.5733 32.9344 24.5733C34.3079 24.5733 35.4602 24.8464 36.3913 25.3926C37.3342 25.9275 37.9336 26.7696 38.1897 27.9189H36.4263C36.2168 27.2361 35.8094 26.7411 35.2041 26.4339C34.5989 26.1152 33.8365 25.9559 32.9169 25.9559C31.7995 25.9673 30.9324 26.2006 30.3155 26.6558C29.6986 27.111 29.3261 27.8506 29.1981 28.8748H34.5057V30.2745H29.2156C29.3669 31.2304 29.751 31.9303 30.3679 32.3741C30.9964 32.8065 31.8577 33.0228 32.9519 33.0228C33.883 33.0228 34.6396 32.8691 35.2216 32.5619C35.8036 32.2432 36.2109 31.7482 36.4437 31.0768H38.1722Z" stroke="#041248" stroke-width="0.3"/>
<path d="M49.7459 31.111C49.6644 31.6799 49.4723 32.1807 49.1697 32.6131C48.8787 33.0341 48.5004 33.3869 48.0348 33.6714C47.5809 33.9559 47.0571 34.1664 46.4635 34.303C45.8699 34.4509 45.2297 34.5249 44.543 34.5249C43.7049 34.5249 42.9483 34.4225 42.2732 34.2176C41.6098 34.0242 41.0395 33.7226 40.5622 33.3129C40.085 32.9033 39.7184 32.3855 39.4623 31.7596C39.2062 31.1337 39.0724 30.3997 39.0607 29.5576C39.0607 28.7155 39.1888 27.9815 39.4448 27.3556C39.7009 26.7184 40.0617 26.1949 40.5273 25.7852C41.0045 25.3642 41.5807 25.0512 42.2558 24.8464C42.9309 24.6302 43.6816 24.5221 44.508 24.5221C45.1948 24.5221 45.835 24.596 46.4286 24.744C47.0338 24.8919 47.5693 25.1081 48.0348 25.3926C48.5004 25.6771 48.8845 26.0356 49.1872 26.468C49.4898 26.889 49.6818 27.3841 49.7633 27.9531H48.0174C47.9475 27.623 47.8079 27.3329 47.5984 27.0825C47.4005 26.8321 47.1444 26.6216 46.8301 26.4509C46.5275 26.2802 46.1725 26.1494 45.7651 26.0583C45.3694 25.9673 44.9445 25.9218 44.4906 25.9218C43.2568 25.9331 42.3256 26.229 41.6971 26.8094C41.0686 27.3898 40.7426 28.3001 40.7194 29.5405C40.7426 30.7696 41.0744 31.6743 41.7145 32.2546C42.3664 32.835 43.3092 33.1252 44.543 33.1252C45.4625 33.1252 46.2365 32.9602 46.8651 32.6302C47.4936 32.3001 47.8777 31.7937 48.0174 31.111H49.7459Z" stroke="#041248" stroke-width="0.3"/>
<path d="M57.3665 26.4851V34.0811H55.7253V26.4851H51.343V25.0341H61.7138V26.4851H57.3665Z" stroke="#041248" stroke-width="0.3"/>
<path d="M68.9948 34.4225C68.1684 34.4339 67.3944 34.3201 66.6727 34.0811C65.9627 33.8421 65.3458 33.4893 64.822 33.0228V37L63.1983 36.9829V25.0341H64.822L64.7347 26.1437C65.2585 25.6543 65.8754 25.2731 66.5854 25C67.3071 24.7269 68.0927 24.5903 68.9424 24.5903C69.7339 24.5903 70.4672 24.6927 71.1423 24.8976C71.8174 25.091 72.3994 25.3869 72.8882 25.7852C73.3887 26.1835 73.7787 26.6899 74.058 27.3044C74.349 27.9075 74.5003 28.6245 74.512 29.4552C74.512 30.3087 74.3723 31.0484 74.0929 31.6743C73.8136 32.3001 73.4295 32.8179 72.9406 33.2276C72.4518 33.6373 71.8698 33.9388 71.1947 34.1323C70.5196 34.3257 69.7863 34.4225 68.9948 34.4225ZM64.8395 29.5064C64.8511 30.1323 64.9559 30.6615 65.1537 31.0939C65.3633 31.5263 65.6426 31.8791 65.9918 32.1522C66.3526 32.4253 66.7775 32.6245 67.2663 32.7496C67.7668 32.8748 68.3139 32.9374 68.9075 32.9374C69.4895 32.9374 70.0191 32.8748 70.4963 32.7496C70.9852 32.6245 71.3984 32.4253 71.7359 32.1522C72.0851 31.8791 72.3528 31.5263 72.539 31.0939C72.7369 30.6615 72.8417 30.1323 72.8533 29.5064C72.8417 28.8805 72.7369 28.3514 72.539 27.9189C72.3528 27.4751 72.0909 27.1166 71.7534 26.8435C71.4158 26.559 71.0084 26.3542 70.5312 26.229C70.054 26.1038 69.5244 26.0413 68.9424 26.0413C68.3488 26.0413 67.8017 26.1095 67.3012 26.2461C66.8124 26.3713 66.3817 26.5761 66.0092 26.8606C65.6484 27.1337 65.3633 27.4922 65.1537 27.936C64.9559 28.3684 64.8511 28.8919 64.8395 29.5064Z" stroke="#041248" stroke-width="0.3"/>
<path d="M86.4416 26.4851V34.0811H84.8179V25.0341H94.1761V34.0811H92.5698V26.4851H86.4416Z" stroke="#041248" stroke-width="0.3"/>
<path d="M106.987 29.5918C106.976 30.4225 106.83 31.1508 106.551 31.7767C106.283 32.3912 105.899 32.9033 105.399 33.3129C104.91 33.7226 104.322 34.0299 103.635 34.2347C102.96 34.4395 102.209 34.542 101.383 34.542C100.545 34.542 99.7884 34.4395 99.1133 34.2347C98.4382 34.0413 97.8562 33.7397 97.3673 33.33C96.8901 32.9203 96.5177 32.4026 96.2499 31.7767C95.9822 31.1508 95.8426 30.4168 95.8309 29.5747C95.8309 28.7326 95.9648 27.9986 96.2325 27.3727C96.5002 26.7354 96.8727 26.212 97.3499 25.8023C97.8387 25.3812 98.4207 25.0683 99.0958 24.8634C99.7826 24.6472 100.539 24.5391 101.366 24.5391C102.204 24.5391 102.966 24.6415 103.653 24.8464C104.339 25.0512 104.927 25.3642 105.416 25.7852C105.917 26.1949 106.301 26.7184 106.568 27.3556C106.848 27.9929 106.987 28.7383 106.987 29.5918ZM97.4896 29.5405C97.5128 30.7696 97.8562 31.6743 98.5197 32.2546C99.1948 32.8236 100.149 33.1081 101.383 33.1081C102.617 33.1081 103.577 32.8236 104.264 32.2546C104.951 31.6856 105.306 30.7809 105.329 29.5405C105.306 28.3001 104.945 27.3954 104.246 26.8265C103.548 26.2461 102.582 25.9559 101.348 25.9559C100.114 25.9559 99.1657 26.2461 98.5022 26.8265C97.8504 27.3954 97.5128 28.3001 97.4896 29.5405Z" stroke="#041248" stroke-width="0.3"/>
<path d="M112.372 30.3428L109.858 34.0811H107.798L111.011 29.5064L108.182 25.0341H110.26L112.704 28.926H114.799L117.226 25.0341H119.304L116.475 29.5235L119.688 34.0811H117.645L115.131 30.3428H112.372Z" stroke="#041248" stroke-width="0.3"/>
<path d="M131.625 29.5918C131.613 30.4225 131.468 31.1508 131.188 31.7767C130.921 32.3912 130.537 32.9033 130.036 33.3129C129.547 33.7226 128.959 34.0299 128.273 34.2347C127.598 34.4395 126.847 34.542 126.02 34.542C125.182 34.542 124.426 34.4395 123.751 34.2347C123.076 34.0413 122.494 33.7397 122.005 33.33C121.528 32.9203 121.155 32.4026 120.887 31.7767C120.62 31.1508 120.48 30.4168 120.468 29.5747C120.468 28.7326 120.602 27.9986 120.87 27.3727C121.138 26.7354 121.51 26.212 121.987 25.8023C122.476 25.3812 123.058 25.0683 123.733 24.8634C124.42 24.6472 125.177 24.5391 126.003 24.5391C126.841 24.5391 127.603 24.6415 128.29 24.8464C128.977 25.0512 129.565 25.3642 130.054 25.7852C130.554 26.1949 130.938 26.7184 131.206 27.3556C131.485 27.9929 131.625 28.7383 131.625 29.5918ZM122.127 29.5405C122.15 30.7696 122.494 31.6743 123.157 32.2546C123.832 32.8236 124.787 33.1081 126.02 33.1081C127.254 33.1081 128.215 32.8236 128.901 32.2546C129.588 31.6856 129.943 30.7809 129.966 29.5405C129.943 28.3001 129.582 27.3954 128.884 26.8265C128.185 26.2461 127.219 25.9559 125.986 25.9559C124.752 25.9559 123.803 26.2461 123.14 26.8265C122.488 27.3954 122.15 28.3001 122.127 29.5405Z" stroke="#041248" stroke-width="0.3"/>
<path d="M143.906 31.606C143.906 32.4595 143.644 33.0854 143.121 33.4836C142.597 33.8819 141.928 34.0811 141.113 34.0811H133.309V25.0341H140.519C140.95 25.0341 141.346 25.0854 141.706 25.1878C142.067 25.2902 142.376 25.4495 142.632 25.6657C142.888 25.8706 143.086 26.138 143.225 26.468C143.377 26.798 143.452 27.1849 143.452 27.6287C143.441 28.1408 143.342 28.5391 143.156 28.8236C142.981 29.1081 142.725 29.3186 142.387 29.4552C142.83 29.5804 143.191 29.825 143.47 30.1892C143.749 30.5533 143.895 31.0256 143.906 31.606ZM134.932 28.9772L140.083 28.9943C140.607 28.9829 141.026 28.8976 141.34 28.7383C141.654 28.5789 141.817 28.2489 141.829 27.7482C141.829 27.4296 141.776 27.1849 141.672 27.0142C141.567 26.8321 141.427 26.7013 141.253 26.6216C141.078 26.5306 140.868 26.4794 140.624 26.468C140.391 26.4452 140.141 26.4339 139.873 26.4339H134.932V28.9772ZM134.932 32.6814H140.572C141.165 32.6814 141.596 32.6017 141.864 32.4424C142.131 32.2831 142.271 31.9644 142.283 31.4865C142.271 31.0199 142.131 30.7184 141.864 30.5818C141.608 30.4339 141.189 30.3599 140.607 30.3599H134.932V32.6814Z" stroke="#041248" stroke-width="0.3"/>
<path d="M153.486 31.5548C153.474 32.522 153.166 33.256 152.561 33.7568C151.967 34.2575 151.1 34.5078 149.959 34.5078H149.366C148.225 34.5078 147.34 34.2575 146.712 33.7568C146.083 33.2447 145.757 32.4708 145.734 31.4353C145.734 30.4225 146.054 29.6771 146.694 29.1991C147.334 28.7098 148.225 28.4652 149.366 28.4652H154.726C154.667 27.9644 154.522 27.5548 154.289 27.2361C154.056 26.9061 153.783 26.6501 153.468 26.468C153.154 26.2745 152.811 26.1437 152.438 26.0754C152.078 25.9957 151.74 25.9559 151.426 25.9559H151.251C150.937 25.9559 150.611 25.9787 150.273 26.0242C149.936 26.0697 149.61 26.1551 149.296 26.2802C148.981 26.394 148.696 26.5533 148.44 26.7582C148.184 26.963 147.992 27.2304 147.864 27.5605H146.153C146.211 27.1166 146.374 26.7127 146.642 26.3485C146.921 25.9844 147.282 25.6714 147.724 25.4097C148.178 25.1366 148.696 24.926 149.278 24.7781C149.872 24.6302 150.5 24.5562 151.164 24.5562H151.304C152.211 24.5562 152.985 24.6586 153.626 24.8634C154.266 25.0683 154.79 25.3812 155.197 25.8023C155.604 26.2233 155.901 26.7582 156.087 27.4068C156.274 28.0555 156.373 28.8236 156.384 29.7112V34.0811H154.76V29.8307L152.962 29.8137C153.311 30.2802 153.486 30.8606 153.486 31.5548ZM147.358 31.4353C147.369 31.9815 147.532 32.3969 147.847 32.6814C148.161 32.9545 148.667 33.091 149.366 33.091H149.959C150.634 33.091 151.129 32.9545 151.443 32.6814C151.757 32.4083 151.926 31.9929 151.95 31.4353C151.926 30.8777 151.763 30.468 151.461 30.2063C151.158 29.9445 150.658 29.8137 149.959 29.8137H149.366C148.667 29.8137 148.161 29.9445 147.847 30.2063C147.532 30.468 147.369 30.8777 147.358 31.4353Z" stroke="#041248" stroke-width="0.3"/>
<path d="M160.627 30.394V34.0811H159.003V25.0341H160.627V28.9431H167.384V25.0512L169.007 25.0341V34.0811H167.401V30.394H160.627Z" stroke="#041248" stroke-width="0.3"/>
<path d="M181 30.9573C181 31.6743 180.866 32.2376 180.598 32.6472C180.342 33.0569 179.993 33.3698 179.551 33.5861C179.12 33.7909 178.62 33.9275 178.049 33.9957C177.491 34.0526 176.915 34.0811 176.321 34.0811H171.45V25.0341H173.073V28.0213H175.57C176.234 28.0213 176.885 28.0327 177.526 28.0555C178.177 28.0669 178.759 28.1579 179.272 28.3286C179.795 28.4993 180.214 28.7895 180.529 29.1991C180.843 29.5974 181 30.1835 181 30.9573ZM173.073 32.6814H175.605C176.117 32.6814 176.6 32.6757 177.054 32.6643C177.508 32.6415 177.904 32.5789 178.241 32.4765C178.591 32.3741 178.864 32.2091 179.062 31.9815C179.272 31.7425 179.376 31.4011 179.376 30.9573C179.376 30.5818 179.283 30.2916 179.097 30.0868C178.911 29.8819 178.672 29.7283 178.381 29.6259C178.09 29.5235 177.764 29.4666 177.403 29.4552C177.043 29.4324 176.688 29.4211 176.338 29.4211H173.073V32.6814Z" stroke="#041248" stroke-width="0.3"/>
</svg>
