<svg width="25" height="24" viewBox="0 0 25 24" fill="none" xmlns="http://www.w3.org/2000/svg">
<path d="M14.5 4.5C14.5 5.88071 11.8137 7 8.5 7C5.18629 7 2.5 5.88071 2.5 4.5M14.5 4.5C14.5 3.11929 11.8137 2 8.5 2C5.18629 2 2.5 3.11929 2.5 4.5M14.5 4.5V8.5M2.5 4.5V8.5M14.5 8.5C14.5 9.88071 11.8137 11 8.5 11C5.18629 11 2.5 9.88071 2.5 8.5M14.5 8.5V13.1423M2.5 8.5V12.5M2.5 12.5C2.5 13.8807 5.18629 15 8.5 15C9.28527 15 10.0353 14.9371 10.7227 14.8228M2.5 12.5V16.5C2.5 17.8807 5.18629 19 8.5 19C9.20127 19 9.87444 18.9499 10.5 18.8577M22.5 15.5C22.5 16.8807 19.8137 18 16.5 18C13.1863 18 10.5 16.8807 10.5 15.5M22.5 15.5C22.5 14.1193 19.8137 13 16.5 13C15.7987 13 15.1256 13.0501 14.5 13.1423M22.5 15.5V19.5C22.5 20.8807 19.8137 22 16.5 22C13.1863 22 10.5 20.8807 10.5 19.5V18.8577M10.5 15.5V18.8577M10.5 15.5C10.5 15.2653 10.5776 15.0382 10.7227 14.8228M10.7227 14.8228C11.2506 14.0393 12.672 13.4115 14.5 13.1423" stroke="#041248" stroke-width="2" stroke-linecap="round"/>
</svg>
