<svg width="25" height="24" viewBox="0 0 25 24" fill="none" xmlns="http://www.w3.org/2000/svg">
<path d="M3.5 12H6.2689M3.5 6.6H6.2689M3.5 17.4H6.2689M19.1904 6.6L19.4608 6.3364C19.8212 5.98492 20.4056 5.98492 20.766 6.3364L22.2297 7.7636C22.5901 8.11508 22.5901 8.68492 22.2297 9.03639L19.1904 12M19.1904 6.6L12.077 13.5364C11.9039 13.7052 11.8067 13.9341 11.8067 14.1728V16.5H14.1933C14.4381 16.5 14.6728 16.4052 14.8459 16.2364L19.1904 12M19.1904 6.6V4.8C19.1904 3.80589 18.364 3 17.3445 3H7.19187C6.17239 3 5.34593 3.80589 5.34593 4.8V19.2C5.34593 20.1941 6.17239 21 7.19187 21H17.3445C18.364 21 19.1904 20.1941 19.1904 19.2V12" stroke="#041248" stroke-width="2" stroke-linecap="round"/>
</svg>
