<svg width="24" height="24" viewBox="0 0 24 24" fill="none" xmlns="http://www.w3.org/2000/svg">
<path d="M8.36364 7.55556H3.81818C2.81403 7.55556 2 8.35149 2 9.33333V13.7778C2 14.2687 2.40701 14.6667 2.90909 14.6667M8.36364 7.55556V5.77778C8.36364 4.79594 9.17766 4 10.1818 4H13.8182C14.8223 4 15.6364 4.79594 15.6364 5.77778V7.55556M8.36364 7.55556H15.6364M15.6364 7.55556H20.1818C21.186 7.55556 22 8.35149 22 9.33333V13.7778C22 14.2687 21.593 14.6667 21.0909 14.6667M13.8182 14.6667V13.7778C13.8182 13.2869 13.4112 12.8889 12.9091 12.8889H11.0909C10.5888 12.8889 10.1818 13.2869 10.1818 13.7778V14.6667M13.8182 14.6667V15.5556C13.8182 16.0465 13.4112 16.4444 12.9091 16.4444H11.0909C10.5888 16.4444 10.1818 16.0465 10.1818 15.5556V14.6667M13.8182 14.6667H21.0909M10.1818 14.6667H2.90909M2.90909 14.6667V18.2222C2.90909 19.2041 3.72312 20 4.72727 20H19.2727C20.2769 20 21.0909 19.2041 21.0909 18.2222V14.6667" stroke="#041248" stroke-width="2"/>
</svg>
