<svg width="24" height="24" viewBox="0 0 24 24" fill="none" xmlns="http://www.w3.org/2000/svg"><path d="M4.00928 11.1236L4.2562 12.0927C4.68147 11.9843 4.9864 11.6113 5.00806 11.173L4.00928 11.1236ZM18.1552 8.03862L17.2684 8.50079C17.4212 8.79397 17.709 8.99268 18.0373 9.03165L18.1552 8.03862ZM7 20C7.55228 20 8 19.5523 8 19C8 18.4477 7.55228 18 7 18V20ZM17 18C16.4477 18 16 18.4477 16 19C16 19.5523 16.4477 20 17 20V18ZM11 19C11 19.5523 11.4477 20 12 20C12.5523 20 13 19.5523 13 19H11ZM12 11L12.7071 10.2929C12.3166 9.90237 11.6834 9.90237 11.2929 10.2929L12 11ZM14.2929 14.7071C14.6834 15.0976 15.3166 15.0976 15.7071 14.7071C16.0976 14.3166 16.0976 13.6834 15.7071 13.2929L14.2929 14.7071ZM8.29289 13.2929C7.90237 13.6834 7.90237 14.3166 8.29289 14.7071C8.68342 15.0976 9.31658 15.0976 9.70711 14.7071L8.29289 13.2929ZM22 13.5C22 15.9853 19.9853 18 17.5 18V20C21.0899 20 24 17.0899 24 13.5H22ZM5 18C3.34315 18 2 16.6569 2 15H0C0 17.7614 2.23858 20 5 20V18ZM2 15C2 13.601 2.95857 12.4233 4.2562 12.0927L3.76236 10.1546C1.60012 10.7056 0 12.6647 0 15H2ZM5.00806 11.173C5.17795 7.73552 8.01982 5 11.5 5V3C6.94832 3 3.23275 6.57721 3.0105 11.0743L5.00806 11.173ZM18.0373 9.03165C20.2689 9.29655 22 11.1968 22 13.5H24C24 10.1715 21.499 7.42853 18.2731 7.0456L18.0373 9.03165ZM11.5 5C14.0064 5 16.1831 6.41831 17.2684 8.50079L19.042 7.57646C17.6258 4.85901 14.7808 3 11.5 3V5ZM5 20H7V18H5V20ZM17 20H17.5V18H17V20ZM13 19V11H11V19H13ZM11.2929 11.7071L14.2929 14.7071L15.7071 13.2929L12.7071 10.2929L11.2929 11.7071ZM11.2929 10.2929L8.29289 13.2929L9.70711 14.7071L12.7071 11.7071L11.2929 10.2929Z" fill="#041248"/></svg>
