<svg width="24" height="24" viewBox="0 0 24 24" fill="none" xmlns="http://www.w3.org/2000/svg">
<path d="M22 12V9.33333C22 8.35149 21.186 7.55556 20.1818 7.55556M22 12H18.3636C17.3595 12 16.5455 12.7959 16.5455 13.7778C16.5455 14.7596 17.3595 15.5556 18.3636 15.5556H22M22 12V15.5556M22 15.5556V18.2222C22 19.2041 21.186 20 20.1818 20H3.81818C2.81403 20 2 19.2041 2 18.2222V5.77778M20.1818 7.55556H3.81818C2.81403 7.55556 2 6.75962 2 5.77778M20.1818 7.55556V5.77778C20.1818 4.79594 19.3678 4 18.3636 4H3.81818C2.81403 4 2 4.79594 2 5.77778" stroke="#041248" stroke-width="2" stroke-linecap="round"/>
</svg>
